<?xml version="1.0" encoding="UTF-8"?>
<svg id="Layer_1" data-name="Layer 1" xmlns="http://www.w3.org/2000/svg" viewBox="0 0 624.1 579.09">
  <defs>
    <style>
      .cls-1, .cls-2 {
        fill: #ffffffff;
        stroke-width: 9px;
      }

      .cls-1, .cls-2, .cls-3 {
        stroke: #ffffffff;
        stroke-miterlimit: 10;
      }

      .cls-2, .cls-3 {
        fill: none;
      }

      .cls-3 {
        stroke-width: 7px;
      }

      .cls-4 {
        fill:#ffffffff
      }
    </style>
  </defs>
  <path class="cls-2" d="M105.66,344.59h408.89v136.11c0,51.82-42.07,93.89-93.89,93.89h-221.11c-51.82,0-93.89-42.07-93.89-93.89v-136.11h0Z"/>
  <rect class="cls-2" x="105.66" y="303.48" width="408.89" height="41.11"/>
  <rect class="cls-3" x="485.66" y="158.89" width="29.99" height="145.56"/>
  <rect class="cls-3" x="104.66" y="158.89" width="29.99" height="145.56"/>
  <path class="cls-3" d="M128.71,113.41h-52.73c-.23,20.96,11.46,45.49,31.99,45.49,17.06,0,51.74.15,61.86.09"/>
  <path class="cls-3" d="M494.85,113.41h52.73c.23,20.96-11.46,45.49-31.99,45.49-17.06,0-51.74.15-61.86.09"/>
  <path class="cls-1" d="M242.94,344.59h133.15v65.42c0,16.81-12.26,30.46-27.35,30.46h-78.46c-15.09,0-27.35-13.65-27.35-30.46v-65.42h0Z"/>
  <path class="cls-3" d="M312.48,3.5h0"/>
  <path class="cls-3" d="M308.82,76.51h1.34c-11.68.08-25.09-8-27.03-21.1-1.01-6.87-5.78,8.77-12.25,9.44-84.89,8.77-111.33,48.61-147.55,48.56h0c-30.69-3.03-33.21-30.78-20.44-39.72,9.9-6.94,23.82-6.25,35.37,6.85h0c30.84-10.61,62.71-48.88,91.21-52.44,21.5-2.69,30.87,14.2,39.61-.38.46-.76.93-1.51,1.41-2.26,8.69-13.47,23.64-21.59,39.67-21.96h0"/>
  <path class="cls-3" d="M311.49,3.5h0"/>
  <path class="cls-3" d="M310.16,3.5h0c16.03.37,30.98,8.49,39.67,21.96.48.75.95,1.5,1.41,2.26,8.74,14.58,21.59-2.31,43.09.38,28.5,3.56,60.37,41.83,91.21,52.44h0c11.55-13.1,25.47-13.79,35.37-6.85,12.77,8.94,10.25,36.69-20.44,39.72h0c-36.22.05-66.14-39.79-151.03-48.56-6.47-.67-11.24-16.31-12.25-9.44-1.94,13.1-15.35,21.18-27.03,21.1h1.34"/>
  <path class="cls-3" d="M152.91,202.07h21.99c10.08,0,18.26,8.18,18.26,18.26v81.21h-58.5v-81.21c0-10.08,8.18-18.26,18.26-18.26Z"/>
  <path class="cls-3" d="M445.42,204.01h21.99c10.08,0,18.26,8.18,18.26,18.26v81.21h-58.5v-81.21c0-10.08,8.18-18.26,18.26-18.26Z"/>
  <path class="cls-3" d="M386.91,169.7h21.99c10.08,0,18.26,8.18,18.26,18.26v115.53h-58.5v-115.53c0-10.08,8.18-18.26,18.26-18.26Z"/>
  <path class="cls-3" d="M211.41,167.08h21.99c10.08,0,18.26,8.18,18.26,18.26v115.53h-58.5v-115.53c0-10.08,8.18-18.26,18.26-18.26Z"/>
  <path class="cls-3" d="M269.91,133.02h21.99c10.08,0,18.26,8.18,18.26,18.26v149.72h-58.5v-149.72c0-10.08,8.18-18.26,18.26-18.26Z"/>
  <path class="cls-3" d="M328.41,133.02h21.99c10.08,0,18.26,8.18,18.26,18.26v149.72h-58.5v-149.72c0-10.08,8.18-18.26,18.26-18.26Z"/>
  <circle class="cls-4" cx="309.52" cy="37.56" r="15.88"/>
  <path class="cls-1" d="M9.61,338.55h90.97s0-11.17,0-11.17H10.08c-3.08,0-5.58,2.5-5.58,5.58h0c0,3.08,2.03,5.59,5.11,5.59h0Z"/>
  <path class="cls-1" d="M9.61,272.31h90.97s0-11.17,0-11.17H10.08c-3.08,0-5.58,2.5-5.58,5.58h0c0,3.08,2.03,5.59,5.11,5.59h0Z"/>
  <path class="cls-1" d="M9.61,404.78h90.97s0-11.17,0-11.17H10.08c-3.08,0-5.58,2.5-5.58,5.58h0c0,3.08,2.03,5.59,5.11,5.59h0Z"/>
  <path class="cls-1" d="M614.49,338.55c3.08,0,5.11-2.51,5.11-5.59h0c0-3.08-2.5-5.58-5.58-5.58h-90.5v11.17h90.97Z"/>
  <path class="cls-1" d="M614.49,272.31c3.08,0,5.11-2.51,5.11-5.59h0c0-3.08-2.5-5.58-5.58-5.58h-90.5v11.17h90.97Z"/>
  <path class="cls-1" d="M614.49,404.78c3.08,0,5.11-2.51,5.11-5.59h0c0-3.08-2.5-5.58-5.58-5.58h-90.5v11.17h90.97Z"/>
</svg>